<svg viewBox="0 0 14.5 14.5" fill="none" xmlns="http://www.w3.org/2000/svg">
  <path
    d="M2.78769 11.2385C0.963595 14.5598 4.84877 15.3934 7.71438 13.4496C8.55757 15.6291 11.7153 14.0025 12.8505 12.3123C15.347 8.58777 14.3385 4.79059 14.0795 4.0067C12.305 -1.33556 3.43246 -1.34463 1.90593 4.03389C1.54774 4.97638 1.54222 6.04574 1.34384 7.15586C1.24464 7.71773 1.16748 8.07569 0.908476 8.6647C0.754167 9.00462 0.550262 9.30362 0.219618 9.81109C-0.287383 10.5996 -0.0724769 12.1175 2.55072 11.3291L2.79872 11.2385H2.78769Z"
    fill="#FFFFFF"
  />
  <path
    d="M8.05709 6.32245C7.32968 6.32245 7.21947 5.60653 7.21947 5.1806C7.21947 4.79544 7.30213 4.49186 7.46199 4.29702C7.59975 4.12484 7.80366 4.03874 8.05709 4.03874C8.31066 4.03874 8.53107 4.12484 8.68533 4.30154C8.86169 4.50093 8.9554 4.80451 8.9554 5.1806C8.9554 5.89652 8.61932 6.32245 8.06268 6.32245H8.05709Z"
    fill="#000000"
  />
  <path
    d="M11.054 6.32245C10.3266 6.32245 10.2164 5.60653 10.2164 5.1806C10.2164 4.79544 10.2991 4.49186 10.4589 4.29702C10.5967 4.12484 10.8006 4.03874 11.054 4.03874C11.3076 4.03874 11.528 4.12484 11.6823 4.30154C11.8587 4.50093 11.9524 4.80451 11.9524 5.1806C11.9524 5.89652 11.6163 6.32245 11.0596 6.32245H11.054Z"
    fill="#000000"
  />
</svg>
